<?xml version="1.0" encoding="utf-8"?>
<!-- Generator: Adobe Illustrator 25.2.3, SVG Export Plug-In . SVG Version: 6.00 Build 0)  -->
<svg version="1.1" id="Capa_1" xmlns="http://www.w3.org/2000/svg" xmlns:xlink="http://www.w3.org/1999/xlink" x="0px" y="0px"
	 viewBox="0 0 747.21 245.41" style="enable-background:new 0 0 747.21 245.41;" xml:space="preserve">
<style type="text/css">
	.st0{fill:#FFFFFF;}
	.st1{font-family:'SegoeScript';}
	.st2{font-size:151.5693px;}
</style>
<text transform="matrix(1 0 0 1 139.3093 170.3622)" class="st0 st1 st2">Plantas</text>
<path class="st0" d="M133.66,90.73c1.32,5.81,2.7,11.25,3.77,16.75c0.78,4.02,1.36,8.1,1.62,12.18c0.23,3.64-0.07,7.31-0.17,10.97
	c-0.13,4.48-0.96,8.87-2.13,13.18c-1.55,5.72-3.73,11.18-6.73,16.33c-2.32,3.99-4.85,7.84-7.95,11.23
	c-3.32,3.63-6.9,7.04-10.52,10.38c-4.48,4.12-9.48,7.58-14.65,10.76c-4.02,2.47-8.13,4.8-12.28,7.07
	c-7.64,4.18-15.57,7.75-23.72,10.8c-8.72,3.27-17.44,6.56-26.29,9.42c-9.3,3.01-18.76,5.53-28.16,8.25
	c-1.78,0.52-3.58,0.97-5.36,1.49c-0.7,0.2-1.25,0.26-1.04-0.73c1.79-8.22,3.44-16.47,5.45-24.63c2.09-8.52,4.3-17.03,6.89-25.41
	c2.67-8.62,5.7-17.14,8.9-25.58c2.01-5.29,4.44-10.45,6.99-15.51c4.01-7.94,8.59-15.56,14.18-22.5c2.99-3.71,6.19-7.28,9.63-10.57
	c6.09-5.82,12.99-10.58,20.71-13.99c6.94-3.06,14.17-5.27,21.77-5.97c4.58-0.42,9.19-0.93,13.78-0.81
	c5.65,0.15,11.29,0.91,16.94,1.43c0.9,0.08,1.79,0.25,2.68,0.39c0.05,0.01,0.08,0.12,0.21,0.31c-3.3,3.12-6.63,6.23-9.92,9.39
	c-2.3,2.21-4.53,4.49-6.79,6.74c-2.96,2.96-5.96,5.88-8.87,8.89c-3.86,4.01-7.7,8.05-11.46,12.16c-3.5,3.83-6.96,7.72-10.3,11.69
	c-4,4.76-7.98,9.55-11.73,14.5c-4.23,5.58-8.28,11.31-12.25,17.09c-2.11,3.06-3.88,6.34-5.81,9.52c0.1,0.08,0.19,0.15,0.29,0.23
	c0.24-0.3,0.51-0.57,0.71-0.89c3.92-6.39,8.46-12.34,13.19-18.13c3.16-3.87,6.49-7.6,9.88-11.27c4.5-4.88,9.11-9.66,13.72-14.44
	c2.87-2.97,5.78-5.92,8.78-8.77c4.34-4.14,8.72-8.24,13.18-12.25c4.8-4.32,9.7-8.55,14.59-12.78
	C127.99,95.39,130.66,93.23,133.66,90.73z"/>
<path class="st0" d="M117.13,74.1C98.91,61.23,81.34,48.27,66.67,31.77c0.3,0.48,0.55,1.01,0.92,1.44c3.11,3.6,6.19,7.22,9.39,10.75
	c2.3,2.54,4.67,5.02,7.15,7.36c3.81,3.59,7.71,7.09,11.65,10.54c3.85,3.36,7.78,6.63,11.71,9.9c2.01,1.67,4.1,3.25,6.15,4.87
	c0.18,0.14,0.33,0.31,0.69,0.65c-2.78,0.59-5.33,1.28-7.93,1.63c-3.32,0.45-6.68,0.88-10.03,0.87c-5.69-0.01-11.26-0.96-16.58-3.09
	c-4.79-1.92-9.1-4.62-13.02-7.99C60.44,63.25,55.5,56.69,51.36,49.5c-1.67-2.89-3.37-5.78-4.73-8.81
	c-2.75-6.11-5.44-12.26-7.86-18.51c-2.06-5.31-3.71-10.78-5.51-16.19C32.62,4.09,32.09,2.14,31.45,0c1.49,0.21,2.81,0.35,4.12,0.6
	c6.17,1.2,12.36,2.3,18.49,3.68c8.54,1.92,16.99,4.18,25.13,7.44c3.97,1.59,7.91,3.31,11.74,5.21c4.66,2.31,8.97,5.19,12.93,8.62
	c4.61,3.99,8.33,8.62,10.92,14.13c2.02,4.3,3.27,8.83,3.57,13.58c0.2,3.09,0.4,6.21,0.2,9.3C118.29,66.34,117.64,70.09,117.13,74.1z
	"/>
</svg>
